<svg width="256" height="250" xmlns="http://www.w3.org/2000/svg" preserveAspectRatio="xMidYMid">

 <g>
  <title>background</title>
  <rect fill="none" id="canvas_background" height="402" width="582" y="-1" x="-1"/>
 </g>
 <g>
  <title>Layer 1</title>
  <ellipse ry="125.428505" rx="102.476123" id="svg_3" cy="135.828499" cx="126.380911" stroke-width="0" stroke="#000" fill="#fff"/>
  <g id="svg_1">
   <path id="svg_2" fill="#161614" d="m128.001053,0c-70.683762,0 -128.001053,57.30669 -128.001053,128.001053c0,56.55423 36.676201,104.534485 87.534927,121.459839c6.397095,1.184891 8.745659,-2.776733 8.745659,-6.157562c0,-3.052292 -0.118698,-13.135437 -0.173813,-23.831146c-35.610012,7.743057 -43.124153,-15.102478 -43.124153,-15.102478c-5.822659,-14.795105 -14.212212,-18.729172 -14.212212,-18.729172c-11.613529,-7.944427 0.875412,-7.781204 0.875412,-7.781204c12.853519,0.902969 19.62154,13.190536 19.62154,13.190536c11.416409,19.568558 29.944218,13.911224 37.248508,10.64061c1.148849,-8.272964 4.466087,-13.919693 8.126724,-17.116119c-28.430794,-3.236694 -58.317772,-14.212219 -58.317772,-63.258659c0,-13.974808 5.00024,-25.393326 13.188419,-34.3573c-1.32901,-3.223984 -5.71032,-16.242836 1.23999,-33.874039c0,0 10.748722,-3.440178 35.209408,13.120605c10.210335,-2.836082 21.160408,-4.258373 32.038414,-4.307125c10.878021,0.048752 21.836578,1.471043 32.065979,4.307125c24.431015,-16.560783 35.164902,-13.120605 35.164902,-13.120605c6.96727,17.631203 2.583832,30.650055 1.254822,33.874039c8.20726,8.963974 13.173584,20.382492 13.173584,34.3573c0,49.163033 -29.944214,59.988045 -58.447052,63.156914c4.591141,3.972214 8.682053,11.761902 8.682053,23.703979c0,17.126724 -0.148376,30.910767 -0.148376,35.12674c0,3.406265 2.304062,7.397568 8.792282,6.14061c50.831192,-16.944427 87.460754,-64.90773 87.460754,-121.442886c0,-70.694363 -57.308807,-128.001053 -127.998947,-128.001053zm-80.060493,182.34021c-0.28191,0.635895 -1.282391,0.82666 -2.193829,0.390015c-0.928402,-0.417572 -1.449841,-1.2845 -1.148849,-1.922516c0.275558,-0.654968 1.278149,-0.837265 2.20443,-0.398499c0.930519,0.417572 1.46043,1.292984 1.138248,1.931zm6.29623,5.618042c-0.610458,0.565948 -1.803822,0.303116 -2.613522,-0.591385c-0.837257,-0.892365 -0.994118,-2.085724 -0.375179,-2.660141c0.629532,-0.565948 1.786861,-0.300995 2.62624,0.59137c0.837261,0.902969 1.000473,2.08786 0.362461,2.660156zm4.31945,7.188095c-0.784271,0.544754 -2.06665,0.03392 -2.859402,-1.10434c-0.784267,-1.138245 -0.784267,-2.503296 0.01696,-3.050156c0.794872,-0.546875 2.05817,-0.055115 2.861523,1.074646c0.78215,1.157333 0.78215,2.522385 -0.019081,3.079849zm7.305119,8.324829c-0.701599,0.773666 -2.19595,0.565948 -3.289688,-0.489639c-1.119171,-1.032272 -1.430759,-2.496948 -0.727032,-3.270615c0.710072,-0.775787 2.212902,-0.557465 3.315121,0.489639c1.110687,1.030151 1.449837,2.505417 0.701599,3.270615zm9.441154,2.810364c-0.309464,1.002594 -1.748703,1.458313 -3.19854,1.032272c-1.447716,-0.438766 -2.395195,-1.613052 -2.102684,-2.626236c0.300987,-1.008957 1.746582,-1.483749 3.207024,-1.02803c1.445595,0.436646 2.395195,1.602448 2.0942,2.621994zm10.744431,1.192093c0.036034,1.055573 -1.193367,1.930984 -2.715263,1.950073c-1.53038,0.033905 -2.76825,-0.820313 -2.78521,-1.858932c0,-1.066177 1.201836,-1.933121 2.732216,-1.958557c1.521912,-0.029663 2.768257,0.818192 2.768257,1.867416zm10.555206,-0.404617c0.182289,1.030151 -0.87542,2.08786 -2.386719,2.369766c-1.48587,0.271317 -2.861519,-0.364578 -3.050171,-1.386246c-0.18441,-1.055588 0.892372,-2.113281 2.376122,-2.386719c1.513428,-0.262833 2.867882,0.356094 3.060768,1.403198z"/>
  </g>
 </g>
</svg>